<svg width="512" height="512" viewBox="0 0 512 512" fill="none" xmlns="http://www.w3.org/2000/svg">
  <rect width="512" height="512" rx="128" fill="#F3E9D8"/>
  <rect x="108" y="84" width="252" height="344" rx="36" fill="#FFF9F0" stroke="#1F2E3A" stroke-width="20"/>
  <path d="M360 84H296C277.222 84 262 99.2223 262 118V184C262 202.778 277.222 218 296 218H360V84Z" fill="#D45C2E"/>
  <path d="M360 84L262 218" stroke="#1F2E3A" stroke-width="20" stroke-linejoin="round"/>
  <rect x="142" y="154" width="142" height="18" rx="9" fill="#D45C2E"/>
  <rect x="142" y="192" width="176" height="18" rx="9" fill="#1F2E3A" opacity="0.18"/>
  <rect x="142" y="230" width="176" height="18" rx="9" fill="#1F2E3A" opacity="0.18"/>
  <rect x="142" y="268" width="122" height="86" rx="20" fill="#1F2E3A"/>
  <path d="M173 332C194.2 286 214.4 286 235 332" stroke="#F3E9D8" stroke-width="16" stroke-linecap="round"/>
  <circle cx="204" cy="248" r="88" fill="#F3A44A" opacity="0.16"/>
</svg>
