<svg width="512" height="512" viewBox="0 0 512 512" fill="none" xmlns="http://www.w3.org/2000/svg">
  <rect width="512" height="512" rx="128" fill="#F6F1E7"/>
  <rect x="108" y="84" width="252" height="344" rx="36" fill="#FCFAF6" stroke="#111111" stroke-width="20"/>
  <path d="M360 84H300C281.222 84 266 99.2223 266 118V180C266 198.778 281.222 214 300 214H360V84Z" fill="#111111"/>
  <path d="M360 84L266 214" stroke="#111111" stroke-width="20" stroke-linejoin="round"/>
  <rect x="144" y="156" width="132" height="18" rx="9" fill="#111111"/>
  <rect x="144" y="196" width="176" height="18" rx="9" fill="#111111" opacity="0.16"/>
  <rect x="144" y="234" width="152" height="18" rx="9" fill="#111111" opacity="0.16"/>
  <rect x="144" y="278" width="132" height="94" rx="22" fill="#111111"/>
  <path d="M178 298H242V352H178V298Z" fill="#F6F1E7"/>
  <path d="M198 246C198 226.118 214.118 210 234 210H276" stroke="#111111" stroke-width="18" stroke-linecap="round"/>
</svg>
