<svg width="512" height="512" viewBox="0 0 512 512" fill="none" xmlns="http://www.w3.org/2000/svg">
  <rect width="512" height="512" rx="128" fill="#EEF3EE"/>
  <rect x="116" y="92" width="248" height="336" rx="38" fill="#FAFEFB" stroke="#173C3A" stroke-width="20"/>
  <path d="M364 92H300C281.222 92 266 107.222 266 126V190C266 208.778 281.222 224 300 224H364V92Z" fill="#2E8B7E"/>
  <path d="M364 92L266 224" stroke="#173C3A" stroke-width="20" stroke-linejoin="round"/>
  <rect x="148" y="160" width="140" height="18" rx="9" fill="#2E8B7E"/>
  <rect x="148" y="198" width="180" height="18" rx="9" fill="#173C3A" opacity="0.18"/>
  <rect x="148" y="236" width="160" height="18" rx="9" fill="#173C3A" opacity="0.18"/>
  <rect x="148" y="278" width="112" height="92" rx="22" fill="#173C3A"/>
  <path d="M172 322L196 298L222 326L248 286" stroke="#EEF3EE" stroke-width="16" stroke-linecap="round" stroke-linejoin="round"/>
  <circle cx="322" cy="330" r="44" fill="#2E8B7E" opacity="0.16"/>
</svg>
